<svg xmlns="http://www.w3.org/2000/svg" viewBox="8.23 10.91 49.76 44.08">
  <path d="M14.42 10.91l-6.2 7.74v2.17c0 6.2 10.12 6.2 10.12 0 0 6.2 9.7 6.2 9.7 0 0 6.2 10.12 6.2 10.12 0 0 6.2 9.7 6.2 9.7 0 0 6.2 10.12 6.2 10.12 0v-2.17l-6.2-7.74H14.43zm3.82 13.63c-.31.4-.62.72-.93 1.03a6.31 6.31 0 0 1-4.03 1.34c-.4 0-.82 0-1.13-.1v28.18h41.8V26.8c-.4.1-.72.1-1.13.1a6.32 6.32 0 0 1-4.03-1.34c-.3-.31-.62-.62-.92-1.03-.31.4-.52.72-.93 1.03A6.23 6.23 0 0 1 43 26.9a5.85 5.85 0 0 1-3.92-1.34c-.3-.31-.62-.62-.93-1.03-.3.4-.62.72-.93 1.03C35.9 26.6 34.44 27 33 27s-2.89-.41-4.03-1.34c-.3-.3-.62-.62-.93-1.03-.3.41-.51.72-.92 1.03A6.23 6.23 0 0 1 23.19 27a5.84 5.84 0 0 1-3.92-1.34c-.3-.3-.62-.62-.93-1.03l-.1-.1zm5.57 4.23c2.38 0 3.4.62 4.65 3.1h9.19c.51-2.48 1.54-3.1 4.64-3.1 2.37 0 6.4 2.27 7.02 5.47l3.1 12.08c.62 3.1-1.14 5.36-4.23 5.36-2.17 0-4.96-1.44-6.82-5.36H24.84c-1.85 4.02-4.64 5.36-6.8 5.36-3.1 0-4.86-2.27-4.24-5.36l3.1-12.08c.62-3.2 4.64-5.47 7.02-5.47h-.1zM33 33l-7.33 7.74h3.1v3.92h8.57v-3.81h3.1L33 33z"/>
</svg>
